<?xml version="1.0" encoding="UTF-8"?>
<svg width="122px" height="122px" viewBox="0 0 122 122" version="1.1" xmlns="http://www.w3.org/2000/svg" xmlns:xlink="http://www.w3.org/1999/xlink">
    <title>Medium-L</title>
    <g id="Portfolio-Website" stroke="none" stroke-width="1" fill="none" fill-rule="evenodd">
        <g id="Mac-Desktop" transform="translate(-1306.000000, -1017.000000)" fill="#FFFFFF" fill-rule="nonzero">
            <g id="location.fill" transform="translate(-375.000000, -443.000000)">
                <g id="Symbols" transform="translate(497.175310, 619.760174)">
                    <g id="Medium-L" transform="translate(1184.449426, 840.947882)">
                        <path d="M8.4311642,64.4119437 L55.4815642,64.5897437 C55.8757642,64.5897437 56.1380975,64.655877 56.2685642,64.7881437 C56.3990309,64.9203437 56.4642642,65.192177 56.4642642,65.6036437 L56.5931642,112.356644 C56.5931642,114.280244 57.0075642,115.88331 57.8363642,117.165844 C58.6652309,118.44831 59.7273975,119.391044 61.0228642,119.994044 C62.3183309,120.596977 63.7054642,120.829777 65.1842642,120.692444 C66.6631309,120.55511 68.0622309,120.015077 69.3815642,119.072344 C70.7009642,118.12961 71.7876642,116.750877 72.6416642,114.936144 L119.897264,13.1844437 C120.999264,10.782177 121.420598,8.62444367 121.161264,6.71124367 C120.901264,4.79804367 120.133598,3.25511033 118.858264,2.08244367 C117.582931,0.909843667 115.959264,0.229710333 113.987264,0.0420436668 C112.015264,-0.145689667 109.884264,0.295277 107.594264,1.36494367 L5.3663642,48.7099437 C3.67623087,49.4779437 2.39463087,50.506877 1.5215642,51.7967437 C0.648497536,53.0866103 0.151430869,54.449477 0.0303642022,55.8853437 C-0.0907024645,57.3212103 0.150264202,58.686877 0.753264202,59.9823437 C1.3562642,61.2778103 2.29899754,62.3399437 3.5814642,63.1687437 C4.86399754,63.9975437 6.4805642,64.4119437 8.4311642,64.4119437 Z" id="Path"></path>
                    </g>
                </g>
            </g>
        </g>
    </g>
</svg>